<svg width="70" height="70" viewBox="0 0 70 70" fill="none" xmlns="http://www.w3.org/2000/svg">
<path fill-rule="evenodd" clip-rule="evenodd" d="M35 61.25V61.25C20.5012 61.25 8.75 49.4988 8.75 35V35C8.75 20.5012 20.5012 8.75 35 8.75V8.75C49.4988 8.75 61.25 20.5012 61.25 35V35C61.25 49.4988 49.4988 61.25 35 61.25Z" stroke="#36337A" stroke-width="4" stroke-linecap="round" stroke-linejoin="round"/>
<path d="M35.0026 49.5833V35H32.0859" stroke="#36337A" stroke-width="4" stroke-linecap="round" stroke-linejoin="round"/>
<path d="M34.2679 23.3333C33.8654 23.3333 33.5388 23.66 33.5417 24.0625C33.5417 24.465 33.8683 24.7916 34.2708 24.7916C34.6733 24.7916 35 24.465 35 24.0625C35 23.66 34.6733 23.3333 34.2679 23.3333" stroke="#36337A" stroke-width="4" stroke-linecap="round" stroke-linejoin="round"/>
</svg>
